<svg width="794" height="278" fill="none" xmlns="http://www.w3.org/2000/svg"><path d="M406.29 137.31c0-24.32-10.6-47.78-36.31-47.78s-37.53 23.46-37.53 47.78 11.65 48.67 37.53 48.67c25.88 0 36.31-23.98 36.31-48.67zm30.23 0c0 33.37-25.2 63.95-66.55 63.95-43.79 0-67.25-30.58-67.25-63.95 0-33.37 25.73-63.6 67.25-63.6 41.52 0 66.55 30.59 66.55 63.6zm47.26-60.64c3.12 0 4.69 1.74 4.69 5.56v63.95c0 24.84 5.22 40.83 22.59 40.83 19.98 0 27.63-11.81 27.63-39.62l.34-66.02c0-3.13 2.27-4.7 6.1-4.7h11.11c3.65 0 4.51 1.21 4.51 4.34v66.38c0 39.62-20.33 53.87-49.87 53.87-39.1 0-52.64-19.11-52.64-48.31V82.41c0-3.14.78-5.74 5.55-5.74h19.99zm130.88.17c2.87 0 4.47 2.26 4.47 5.05v93.84c0 1.9-.19 3.64-.35 5.38-.17 1.05-.52 1.56-.35 1.91 0 0 .51 0 1.39-.17.51-.17 2.25-.17 2.6-.17h35.7c4.51 0 5.55.85 6.78 3.98.92 2.34 1.73 3.83 2.77 9.05.36 1.38.18 2.94-1.39 2.94h-69.23c-3.28 0-5.73-2.08-5.73-5.89V82.41c0-4 2.08-5.56 6.26-5.56h17.08v-.01zm89.17-.17c3.12 0 4.68 1.74 4.68 5.56v63.95c0 24.84 5.21 40.83 22.6 40.83 19.98 0 27.62-11.81 27.62-39.62l.34-66.02c0-3.13 2.26-4.7 6.09-4.7h11.12c3.64 0 4.52 1.21 4.52 4.34v66.38c0 39.62-20.33 53.87-49.87 53.87-39.09 0-52.64-19.11-52.64-48.31V82.41c0-3.14.77-5.74 5.54-5.74h20z" fill="#fff"/><path d="M59.14 81.5c26.92-20.76 47.69-38.75 65.51-51.29-69.1.35-111.88 49.4-111.88 106.49 0 21.67 5.91 42.63 17.42 60.19-15.37-36.86-14.66-81.76 28.95-115.39z" fill="url(#paint0_linear_132_188)"/><path d="M236.84 136.7c0-8.2-.99-16.31-2.89-24.18-4.24 19.42-13.02 41.1-25.47 65.26-12.02 23.33-24.13 42.69-36.87 57.31 41.34-16.93 65.23-56.34 65.23-98.39z" fill="url(#paint1_linear_132_188)"/><path d="M233.94 112.52c8.59-39.33-1.44-69.42-37.27-92.18-24.64-15.65-44.91-9.19-72.02 9.88h.74c56.75 0 97.66 37.15 108.55 82.32v-.02z" fill="url(#paint2_linear_132_188)"/><path d="M30.19 196.89c12.03 28.84 33.9 52.76 52.78 62.49 35.06 15.21 63.12 4.99 88.63-24.28-13.59 5.57-29.07 8.71-46.21 8.71-44.9 0-77.03-19.2-95.2-46.91v-.01z" fill="url(#paint3_linear_132_188)"/><path d="M167.86 90.7c-6.71 0-9.73 6.08-9.73 12.38 0 6.3 3.02 12.61 9.73 12.61 6.71 0 9.41-6.22 9.41-12.61s-2.75-12.38-9.41-12.38z" fill="url(#paint4_linear_132_188)"/><path d="M125.39 30.2h-.74c-17.82 12.54-38.6 30.53-65.51 51.29-43.61 33.64-44.32 78.54-28.95 115.39 18.17 27.71 50.3 46.91 95.2 46.91 17.14 0 32.61-3.14 46.21-8.71 12.74-14.62 24.84-33.98 36.87-57.31 12.46-24.17 21.23-45.84 25.47-65.26-10.89-45.17-51.8-82.32-108.55-82.32v.01zm42.54 97.48c-16.88 0-25.92-11.79-25.92-24.65s9.91-24.51 25.92-24.51 25.65 11.79 25.65 24.51c0 12.72-9.71 24.65-25.65 24.65z" fill="url(#paint5_linear_132_188)"/><defs><linearGradient id="paint0_linear_132_188" x1="119.52" y1="44.26" x2="13.15" y2="153.51" gradientUnits="userSpaceOnUse"><stop offset=".07" stop-color="#fff" stop-opacity=".35"/><stop offset=".33" stop-color="#fff" stop-opacity=".41"/><stop offset=".69" stop-color="#fff" stop-opacity=".48"/><stop offset=".96" stop-color="#fff" stop-opacity=".5"/></linearGradient><linearGradient id="paint1_linear_132_188" x1="228.84" y1="150.85" x2="193.12" y2="205.44" gradientUnits="userSpaceOnUse"><stop offset=".01" stop-color="#fff" stop-opacity=".5"/><stop offset=".16" stop-color="#fff" stop-opacity=".56"/><stop offset=".49" stop-color="#fff" stop-opacity=".66"/><stop offset=".78" stop-color="#fff" stop-opacity=".73"/><stop offset="1" stop-color="#fff" stop-opacity=".75"/></linearGradient><linearGradient id="paint2_linear_132_188" x1="232.93" y1="77.57" x2="148.87" y2="24.4" gradientUnits="userSpaceOnUse"><stop offset=".01" stop-color="#fff" stop-opacity=".35"/><stop offset=".28" stop-color="#fff" stop-opacity=".41"/><stop offset=".67" stop-color="#fff" stop-opacity=".48"/><stop offset=".96" stop-color="#fff" stop-opacity=".5"/></linearGradient><linearGradient id="paint3_linear_132_188" x1="159.39" y1="250.34" x2="51.78" y2="228.15" gradientUnits="userSpaceOnUse"><stop offset=".05" stop-color="#fff" stop-opacity=".5"/><stop offset=".19" stop-color="#fff" stop-opacity=".56"/><stop offset=".51" stop-color="#fff" stop-opacity=".66"/><stop offset=".79" stop-color="#fff" stop-opacity=".73"/><stop offset="1" stop-color="#fff" stop-opacity=".75"/></linearGradient><linearGradient id="paint4_linear_132_188" x1="178.67" y1="111.53" x2="137.65" y2="79.99" gradientUnits="userSpaceOnUse"><stop offset=".03" stop-color="#fff" stop-opacity=".9"/><stop offset=".1" stop-color="#fff" stop-opacity=".91"/><stop offset=".55" stop-color="#fff" stop-opacity=".98"/><stop offset=".9" stop-color="#fff"/></linearGradient><linearGradient id="paint5_linear_132_188" x1="218.52" y1="176.45" x2="22.06" y2="94.55" gradientUnits="userSpaceOnUse"><stop offset=".03" stop-color="#fff" stop-opacity=".9"/><stop offset=".1" stop-color="#fff" stop-opacity=".91"/><stop offset=".55" stop-color="#fff" stop-opacity=".98"/><stop offset=".9" stop-color="#fff"/></linearGradient></defs></svg>